<?xml version="1.0" standalone="no"?>
<!DOCTYPE svg PUBLIC "-//W3C//DTD SVG 20010904//EN"
 "http://www.w3.org/TR/2001/REC-SVG-20010904/DTD/svg10.dtd">
<svg version="1.0" xmlns="http://www.w3.org/2000/svg"
 width="984.000000pt" height="984.000000pt" viewBox="0 0 984.000000 984.000000"
 preserveAspectRatio="xMidYMid meet">
<metadata>
Created by potrace 1.14, written by Peter Selinger 2001-2017
</metadata>
<g transform="translate(0.000000,984.000000) scale(0.100000,-0.100000)"
fill="#000000" stroke="none">
<path d="M5170 9023 c-56 -11 -110 -42 -110 -63 0 -4 11 -19 25 -34 23 -25 29
-26 119 -26 88 0 97 -2 128 -27 66 -55 93 -96 79 -121 -11 -21 -94 -72 -116
-72 -25 0 -255 -197 -255 -218 0 -11 -115 -72 -134 -72 -9 0 -33 9 -53 20
-101 54 -323 -3 -370 -94 -14 -27 -14 -31 3 -43 26 -19 116 -16 181 7 60 21
143 27 143 10 0 -5 -6 -10 -12 -10 -7 0 -34 -20 -60 -45 -33 -31 -56 -45 -76
-45 -15 0 -61 -16 -102 -36 -70 -34 -80 -36 -155 -33 -162 6 -168 5 -210 -24
-49 -33 -75 -34 -143 -2 -67 31 -89 31 -120 3 -21 -21 -33 -23 -108 -21 -56 2
-100 -3 -131 -13 -30 -10 -63 -14 -92 -10 -70 9 -280 -10 -300 -27 -23 -21
-78 -37 -123 -37 -39 0 -75 -17 -115 -54 -12 -12 -29 -27 -37 -33 -24 -20
-127 -63 -150 -63 -29 0 -67 -29 -152 -116 -48 -49 -80 -73 -103 -77 -47 -10
-96 -62 -166 -178 -26 -43 -51 -75 -69 -89 -78 -62 -136 -141 -136 -188 0 -27
-28 -80 -69 -132 -49 -62 -58 -80 -66 -133 -4 -25 -18 -61 -31 -78 -21 -29
-24 -43 -23 -117 1 -63 -3 -88 -15 -101 -14 -15 -16 -49 -16 -219 l0 -201 37
-68 c74 -138 83 -157 83 -168 0 -6 29 -41 64 -78 36 -36 72 -80 81 -97 9 -17
34 -47 56 -67 21 -19 39 -41 39 -47 0 -22 46 -56 74 -56 16 0 44 -13 66 -30
21 -17 55 -36 77 -44 21 -8 52 -21 68 -30 17 -9 34 -16 38 -16 5 0 29 -16 54
-35 29 -22 57 -35 77 -35 17 0 42 -7 56 -15 14 -8 36 -19 50 -25 14 -5 33 -15
43 -20 10 -6 48 -14 85 -19 37 -5 85 -17 107 -28 49 -23 48 -43 -2 -93 -46
-47 -83 -122 -83 -172 0 -22 -7 -54 -15 -71 -46 -97 -68 -246 -41 -273 17 -17
21 -64 16 -220 -1 -66 2 -101 13 -125 9 -19 20 -51 25 -71 6 -21 26 -54 46
-75 20 -21 36 -46 36 -56 0 -9 9 -34 20 -54 11 -21 20 -51 20 -67 0 -37 27
-79 90 -141 29 -27 59 -64 68 -82 119 -236 133 -258 182 -293 27 -19 50 -38
50 -42 0 -3 11 -19 24 -35 13 -15 26 -38 30 -51 6 -19 3 -24 -23 -33 -17 -6
-31 -15 -31 -20 0 -5 -6 -9 -14 -9 -19 0 -97 -93 -125 -147 -28 -57 -29 -158
-1 -215 15 -31 20 -62 20 -124 0 -96 13 -119 87 -154 63 -28 122 -69 134 -91
7 -13 3 -24 -15 -43 -50 -54 -77 -104 -87 -162 -16 -88 -29 -126 -55 -157 -13
-16 -24 -37 -24 -47 0 -9 -7 -23 -15 -30 -8 -7 -15 -18 -15 -25 0 -7 -12 -38
-26 -69 -21 -47 -30 -57 -47 -54 -17 2 -21 9 -18 28 14 104 -4 365 -28 394
-20 23 -50 109 -63 176 -6 30 -16 62 -23 70 -7 8 -15 32 -18 54 -3 21 -13 46
-22 56 -8 9 -15 23 -15 30 0 18 -46 85 -85 124 -16 17 -36 42 -43 56 -43 83
-64 106 -111 121 -20 6 -49 24 -66 39 -43 41 -130 77 -205 85 -36 4 -70 11
-77 17 -6 5 -39 16 -72 24 -47 12 -68 13 -93 5 -44 -15 -43 -15 -90 29 -61 57
-81 53 -146 -25 -8 -9 -29 -15 -56 -15 -26 0 -48 -6 -55 -14 -7 -8 -26 -18
-42 -21 -17 -4 -33 -13 -35 -20 -3 -7 -22 -16 -42 -20 -49 -9 -114 -39 -133
-62 -9 -10 -28 -42 -43 -72 -31 -60 -49 -78 -116 -118 -81 -48 -108 -86 -136
-197 -9 -36 -20 -66 -24 -66 -7 0 -24 -16 -84 -80 -8 -8 -18 -29 -22 -45 -3
-17 -14 -38 -23 -48 -12 -15 -16 -43 -16 -141 0 -85 -4 -128 -13 -138 -7 -9
-23 -55 -36 -102 -20 -70 -23 -101 -19 -166 5 -60 2 -93 -12 -136 l-17 -55 25
-27 c43 -46 60 -106 66 -243 5 -97 10 -131 22 -145 9 -11 20 -30 24 -44 17
-58 57 -127 84 -143 16 -9 45 -41 64 -69 46 -69 73 -92 125 -107 23 -6 42 -16
42 -20 0 -18 107 -60 162 -64 32 -2 65 -10 75 -19 10 -8 42 -23 71 -33 42 -13
59 -15 84 -6 42 15 79 13 102 -4 29 -22 118 -19 163 5 27 14 57 20 107 20 104
0 176 39 346 186 26 23 59 44 74 48 15 4 32 19 42 39 9 17 22 35 28 39 22 15
61 7 99 -19 l38 -27 74 19 c40 10 83 15 95 12 12 -3 42 0 66 8 59 18 81 10 95
-32 15 -46 63 -99 110 -124 21 -10 44 -29 50 -42 17 -31 66 -77 83 -77 8 0 29
-13 47 -29 18 -17 44 -34 58 -40 14 -5 56 -21 93 -35 36 -14 78 -26 92 -26 14
0 44 -7 67 -17 36 -14 48 -14 91 -3 30 7 70 10 102 6 30 -4 64 -2 80 4 25 9
33 7 62 -15 46 -35 90 -33 123 5 22 26 36 32 94 39 62 7 72 11 102 44 23 25
43 37 61 37 34 0 112 49 142 89 24 33 108 98 157 123 17 8 48 18 70 22 22 4
60 15 85 25 25 10 63 26 85 35 22 9 78 23 125 31 111 19 179 33 190 40 4 2 27
-1 51 -8 25 -8 50 -12 56 -10 17 6 73 -35 73 -52 0 -21 69 -56 124 -62 28 -3
60 -10 70 -16 11 -5 52 -13 91 -18 89 -10 134 -33 212 -108 78 -75 137 -100
197 -82 22 7 62 16 88 21 25 5 61 16 78 25 18 9 58 19 89 22 61 6 103 28 163
87 36 35 39 36 111 36 67 0 77 3 105 27 49 45 82 123 89 211 7 96 -2 115 -64
138 -27 10 -52 21 -58 24 -5 4 -23 10 -40 14 -30 7 -69 23 -135 56 -19 10 -51
21 -70 25 -19 4 -41 11 -50 15 -8 4 -60 29 -115 55 -55 25 -118 55 -141 66
-58 27 -168 26 -209 -1 -16 -11 -43 -20 -58 -20 -27 0 -89 -23 -150 -55 -64
-34 -84 -7 -71 94 4 31 7 64 5 74 -1 10 3 25 11 34 10 12 13 72 13 257 0 238
0 241 -24 280 -17 27 -26 57 -27 95 -10 192 -20 279 -35 302 -12 18 -18 56
-21 144 -4 122 -15 161 -58 210 -13 15 -20 50 -27 131 -9 102 -12 115 -40 150
-19 25 -34 62 -43 102 l-13 63 63 82 c35 45 75 94 89 108 42 41 94 107 111
138 8 15 27 47 43 69 15 23 27 51 27 63 0 11 15 38 33 60 40 46 79 166 77 237
-1 26 6 73 15 106 16 57 16 62 -9 175 -39 173 -48 215 -53 228 -2 6 9 14 25
18 17 3 47 15 68 26 21 10 46 19 55 19 9 0 22 7 29 15 7 8 24 15 38 15 14 0
76 14 138 30 62 17 125 31 141 31 15 0 43 1 62 1 26 1 39 -6 54 -26 19 -26 84
-66 109 -66 7 0 36 -12 63 -25 28 -14 57 -25 65 -25 8 0 24 -7 34 -15 15 -11
50 -15 138 -15 99 0 124 3 155 20 21 11 47 20 58 20 11 0 34 9 50 20 17 11 42
20 56 20 15 0 37 8 50 19 13 10 49 30 79 44 31 13 62 32 69 41 7 9 21 16 31
16 10 0 39 20 64 45 26 25 50 45 54 45 22 0 97 87 130 150 28 55 41 73 83 114
25 24 49 45 54 47 19 8 52 64 59 101 4 21 12 41 19 45 22 14 57 72 57 93 0 11
7 37 15 58 9 20 15 59 14 87 -2 73 20 207 38 228 13 14 14 24 5 53 -8 28 -7
43 5 72 25 58 23 197 -4 248 -11 22 -24 60 -28 84 -4 25 -16 59 -26 76 -10 17
-19 44 -19 60 0 16 -6 41 -14 56 -8 15 -17 40 -21 57 -3 16 -12 35 -20 41 -7
6 -16 23 -20 38 -4 15 -13 34 -21 43 -8 8 -18 35 -23 60 -13 59 -41 141 -56
159 -26 32 -55 108 -55 142 0 39 -36 92 -93 137 -39 29 -67 73 -67 102 0 37
-62 144 -113 194 -48 48 -97 124 -97 150 0 11 -11 32 -60 115 -4 8 -20 40 -35
70 -15 30 -32 60 -38 65 -13 12 -28 34 -56 85 -20 37 -36 54 -88 96 -18 14
-33 32 -33 40 0 7 -9 18 -20 24 -11 6 -20 19 -20 30 0 10 -16 31 -36 46 -19
15 -42 40 -50 55 -20 39 -94 109 -115 109 -10 0 -24 8 -31 19 -7 10 -58 41
-113 69 -55 28 -125 67 -155 86 -50 33 -61 36 -128 36 -71 0 -109 13 -137 47
-18 22 -66 33 -147 33 -73 0 -87 3 -137 31 -47 27 -61 30 -100 25 -25 -3 -50
-11 -55 -16 -6 -6 -43 -10 -83 -10 -40 0 -92 -7 -117 -15 -28 -10 -85 -16
-153 -16 -98 -1 -112 -3 -147 -26 -22 -14 -59 -28 -81 -31 -37 -4 -44 -1 -68
28 -15 17 -27 37 -27 43 0 15 -65 87 -79 87 -5 0 -31 17 -58 37 -58 45 -107
54 -193 36z"/>
<path d="M6733 3979 c-30 -11 -44 -34 -46 -80 -2 -35 2 -45 19 -54 12 -6 28
-16 35 -22 8 -6 48 -14 89 -17 91 -9 156 -37 229 -100 64 -56 96 -101 105
-148 4 -20 13 -41 20 -47 8 -6 17 -41 21 -77 4 -36 13 -80 20 -97 12 -31 28
-210 29 -328 1 -32 7 -63 15 -73 12 -14 12 -24 2 -58 -7 -22 -9 -44 -4 -48 22
-21 50 -18 96 10 51 33 60 59 30 93 -14 15 -18 39 -20 108 -1 53 -6 96 -13
104 -7 8 -14 61 -17 122 -4 69 -12 124 -23 153 -29 72 -60 175 -60 196 0 56
-182 246 -270 281 -19 8 -62 28 -95 46 -64 33 -130 48 -162 36z"/>
<path d="M6647 2903 c-23 -6 -47 -54 -47 -93 0 -17 9 -56 20 -88 11 -31 23
-95 27 -142 7 -100 1 -116 -76 -200 -54 -58 -65 -96 -36 -120 13 -11 20 -9 38
9 13 11 27 21 31 21 9 0 43 36 61 63 6 8 24 36 42 61 38 54 62 138 52 181 -4
17 -7 62 -8 101 -2 103 -17 176 -42 197 -21 17 -29 19 -62 10z"/>
</g>
</svg>
